<svg preserveAspectRatio="none" width="100%" height="100%" overflow="visible" style="display: block;" viewBox="0 0 14 14" fill="none" xmlns="http://www.w3.org/2000/svg">
<g id="solid/arrow-down-circle">
<path id="Vector" fill-rule="evenodd" clip-rule="evenodd" d="M7 0C3.13401 0 0 3.13401 0 7C0 10.866 3.13401 14 7 14C10.866 14 14 10.866 14 7C14 3.13401 10.866 0 7 0ZM6.61925 10.0731C6.72023 10.174 6.85719 10.2308 7 10.2308C7.14281 10.2308 7.27977 10.174 7.38075 10.0731L9.5346 7.91921C9.74488 7.70893 9.74488 7.368 9.5346 7.15771C9.32431 6.94743 8.98338 6.94743 8.7731 7.15771L7.53846 8.39235L7.53846 4.30769C7.53846 4.01031 7.29739 3.76923 7 3.76923C6.70262 3.76923 6.46154 4.01031 6.46154 4.30769L6.46154 8.39235L5.2269 7.15771C5.01662 6.94743 4.67569 6.94743 4.4654 7.15771C4.25512 7.36799 4.25512 7.70893 4.4654 7.91921L6.61925 10.0731Z" fill="var(--fill-0, #CC285C)"/>
</g>
</svg>
