<svg preserveAspectRatio="none" width="100%" height="100%" overflow="visible" style="display: block;" viewBox="0 0 24 24" fill="none" xmlns="http://www.w3.org/2000/svg">
<g id="delete">
<path id="Vector" d="M10.5615 2.3125H13.4385C14.6735 2.3125 15.7465 3.1503 16.0459 4.34863L16.5254 6.26758L16.5371 6.31543H19.9053C19.9379 6.31418 19.969 6.3125 20 6.3125C20.3792 6.3125 20.6875 6.62174 20.6875 7.00098L20.6738 7.13965C20.6097 7.45275 20.3319 7.68848 20 7.68848H19.9492C19.2497 7.71604 18.6875 8.29265 18.6875 8.99902V17.999C18.6874 20.0319 17.0329 21.6865 15 21.6865H9C6.96711 21.6865 5.31265 20.0319 5.3125 17.999V8.99902C5.3125 8.29265 4.75025 7.71604 4.05078 7.68848H4C3.62077 7.68848 3.3125 7.38021 3.3125 7.00098V7C3.3125 6.62077 3.62077 6.3125 4 6.3125C4.01471 6.3125 4.02962 6.31285 4.0459 6.31348C4.06195 6.31409 4.08 6.31543 4.09766 6.31543H7.46289L7.47461 6.26758L7.9541 4.34863C8.23477 3.22396 9.19536 2.41847 10.332 2.32227L10.5615 2.3125ZM6.39453 7.78125C6.58134 8.14768 6.6875 8.56161 6.6875 9V18C6.6875 19.2758 7.72423 20.3125 9 20.3125H15C16.2745 20.3125 17.3125 19.2758 17.3125 18V9.0625H17.3135V9C17.3135 8.56166 17.4197 8.14765 17.6064 7.78125L17.6533 7.69043H6.34766L6.39453 7.78125ZM10 10.3125C10.3792 10.3125 10.6875 10.6208 10.6875 11V17C10.6875 17.3792 10.3792 17.6875 10 17.6875C9.62077 17.6875 9.3125 17.3792 9.3125 17V11C9.3125 10.6208 9.62077 10.3125 10 10.3125ZM14 10.3125C14.3792 10.3125 14.6875 10.6208 14.6875 11V17C14.6875 17.3792 14.3792 17.6875 14 17.6875C13.6208 17.6875 13.3125 17.3792 13.3125 17V11C13.3125 10.6208 13.6208 10.3125 14 10.3125ZM10.5615 3.6875C9.95782 3.6875 9.43377 4.09726 9.28809 4.68262L8.87988 6.31543H15.1201L14.7119 4.68262C14.5662 4.09726 14.0422 3.6875 13.4385 3.6875H10.5615Z" fill="var(--fill-0, white)" stroke="var(--stroke-0, white)" stroke-width="0.125"/>
</g>
</svg>
